<?xml version="1.0" encoding="utf-8"?>
<svg viewBox="0 0 500 500" xmlns="http://www.w3.org/2000/svg" xmlns:xlink="http://www.w3.org/1999/xlink" xmlns:bx="https://boxy-svg.com">
  <defs>
    <linearGradient id="gradient-0-0" gradientUnits="userSpaceOnUse" x1="276.444" y1="132.819" x2="276.444" y2="378.507" gradientTransform="matrix(1.131289, 0, 0, 1.131289, -51.688809, -38.764117)" xlink:href="#gradient-0"/>
    <linearGradient id="gradient-0" bx:pinned="true">
      <title>a2</title>
      <stop offset="0" style="stop-color: rgb(191, 185, 137);"/>
      <stop offset="1" style="stop-color: rgb(140, 136, 101);"/>
    </linearGradient>
    <linearGradient id="gradient-3-0" gradientUnits="userSpaceOnUse" x1="276.444" y1="132.819" x2="276.444" y2="378.507" gradientTransform="matrix(1.131289, 0, 0, 1.131289, -51.688809, -38.764117)" xlink:href="#gradient-3"/>
    <linearGradient id="gradient-3" bx:pinned="true">
      <title>hi2</title>
      <stop offset="0" style="stop-color: rgb(158, 153, 112);"/>
      <stop offset="1" style="stop-color: rgb(119, 115, 82);"/>
    </linearGradient>
    <linearGradient id="gradient-1-0" gradientUnits="userSpaceOnUse" x1="250.809" y1="154.531" x2="250.809" y2="368.932" gradientTransform="matrix(1.131289, 0, 0.138335, 1.131289, -75.700381, -28.846319)" xlink:href="#gradient-1"/>
    <linearGradient id="gradient-1" bx:pinned="true">
      <title>a</title>
      <stop offset="0" style="stop-color: rgb(255, 246, 181);"/>
      <stop offset="1" style="stop-color: rgb(201, 195, 143);"/>
    </linearGradient>
    <linearGradient id="gradient-2-0" gradientUnits="userSpaceOnUse" x1="241.942" y1="129.716" x2="241.942" y2="375.404" gradientTransform="matrix(1.131289, 0, -0.154319, 1.131289, 12.877142, -36.168586)" xlink:href="#gradient-2"/>
    <linearGradient id="gradient-2" bx:pinned="true">
      <title>hi</title>
      <stop offset="0" style="stop-color: rgb(215, 207, 150);"/>
      <stop offset="1" style="stop-color: rgb(166, 161, 118);"/>
    </linearGradient>
  </defs>
  <path d="M 29.811 373.869 C 29.811 373.869 37.792 233.13 43.369 130.487 C 44.73 105.442 90.128 111.797 94.573 113.347 C 108.679 118.266 124.074 130.408 123.496 145.007 C 123.369 148.205 476.942 146.888 476.958 146.88 C 485.551 146.88 492.418 153.846 492.296 162.439 L 489.284 373.869 C 489.162 382.463 482.096 389.429 473.503 389.429 L 45.151 389.429 C 36.557 389.429 29.69 382.463 29.811 373.869 Z" style="stroke-width: 6px; stroke-miterlimit: 14; stroke-linecap: round; stroke-linejoin: round; fill: url(#gradient-0-0); stroke: url(#gradient-3-0);" bx:origin="0.515242 0.5"/>
  <path d="M 27.44 372.954 C 27.44 372.954 16.204 232.215 7.769 129.572 C 5.71 104.526 51.976 110.882 56.633 112.432 C 71.41 117.351 88.462 129.493 89.877 144.092 C 90.186 147.29 443.581 145.972 443.595 145.964 C 452.189 145.964 460.007 152.931 461.058 161.524 L 486.912 372.954 C 487.963 381.548 481.849 388.514 473.255 388.514 L 44.903 388.514 C 36.31 388.514 28.491 381.548 27.44 372.954 Z" style="fill: url(#gradient-1-0); stroke-width: 6px; stroke: url(#gradient-2-0); stroke-miterlimit: 14; stroke-linecap: round; stroke-linejoin: round;" bx:origin="0.515242 0.5"/>
  <path d="M 44.153 169.547 L 52.201 169.547 L 52.201 177.593 L 44.153 177.593 L 44.153 169.547 Z M 52.201 169.547 L 60.248 169.547 L 60.248 177.593 L 52.201 177.593 L 52.201 169.547 Z M 60.248 169.547 L 68.295 169.547 L 68.295 177.593 L 60.248 177.593 L 60.248 169.547 Z M 68.295 169.547 L 76.34 169.547 L 76.34 177.593 L 68.295 177.593 L 68.295 169.547 Z M 76.34 169.547 L 84.389 169.547 L 84.389 177.593 L 76.34 177.593 L 76.34 169.547 Z M 84.389 169.547 L 92.436 169.547 L 92.436 177.593 L 84.389 177.593 L 84.389 169.547 Z M 92.436 169.547 L 100.483 169.547 L 100.483 177.593 L 92.436 177.593 L 92.436 169.547 Z M 124.625 169.547 L 132.671 169.547 L 132.671 177.593 L 124.625 177.593 L 124.625 169.547 Z M 140.72 169.547 L 148.767 169.547 L 148.767 177.593 L 140.72 177.593 L 140.72 169.547 Z M 148.767 169.547 L 156.813 169.547 L 156.813 177.593 L 148.767 177.593 L 148.767 169.547 Z M 156.813 169.547 L 164.859 169.547 L 164.859 177.593 L 156.813 177.593 L 156.813 169.547 Z M 164.859 169.547 L 172.908 169.547 L 172.908 177.593 L 164.859 177.593 L 164.859 169.547 Z M 189.001 169.547 L 197.05 169.547 L 197.05 177.593 L 189.001 177.593 L 189.001 169.547 Z M 197.05 169.547 L 205.097 169.547 L 205.097 177.593 L 197.05 177.593 L 197.05 169.547 Z M 205.097 169.547 L 213.143 169.547 L 213.143 177.593 L 205.097 177.593 L 205.097 169.547 Z M 213.143 169.547 L 221.189 169.547 L 221.189 177.593 L 213.143 177.593 L 213.143 169.547 Z M 221.189 169.547 L 229.239 169.547 L 229.239 177.593 L 221.189 177.593 L 221.189 169.547 Z M 229.239 169.547 L 237.285 169.547 L 237.285 177.593 L 229.239 177.593 L 229.239 169.547 Z M 237.285 169.547 L 245.331 169.547 L 245.331 177.593 L 237.285 177.593 L 237.285 169.547 Z M 44.153 177.593 L 52.201 177.593 L 52.201 185.642 L 44.153 185.642 L 44.153 177.593 Z M 92.436 177.593 L 100.483 177.593 L 100.483 185.642 L 92.436 185.642 L 92.436 177.593 Z M 156.813 177.593 L 164.859 177.593 L 164.859 185.642 L 156.813 185.642 L 156.813 177.593 Z M 172.908 177.593 L 180.955 177.593 L 180.955 185.642 L 172.908 185.642 L 172.908 177.593 Z M 189.001 177.593 L 197.05 177.593 L 197.05 185.642 L 189.001 185.642 L 189.001 177.593 Z M 237.285 177.593 L 245.331 177.593 L 245.331 185.642 L 237.285 185.642 L 237.285 177.593 Z M 44.153 185.642 L 52.201 185.642 L 52.201 193.689 L 44.153 193.689 L 44.153 185.642 Z M 60.248 185.642 L 68.295 185.642 L 68.295 193.689 L 60.248 193.689 L 60.248 185.642 Z M 68.295 185.642 L 76.34 185.642 L 76.34 193.689 L 68.295 193.689 L 68.295 185.642 Z M 76.34 185.642 L 84.389 185.642 L 84.389 193.689 L 76.34 193.689 L 76.34 185.642 Z M 92.436 185.642 L 100.483 185.642 L 100.483 193.689 L 92.436 193.689 L 92.436 185.642 Z M 108.531 185.642 L 116.578 185.642 L 116.578 193.689 L 108.531 193.689 L 108.531 185.642 Z M 124.625 185.642 L 132.671 185.642 L 132.671 193.689 L 124.625 193.689 L 124.625 185.642 Z M 140.72 185.642 L 148.767 185.642 L 148.767 193.689 L 140.72 193.689 L 140.72 185.642 Z M 148.767 185.642 L 156.813 185.642 L 156.813 193.689 L 148.767 193.689 L 148.767 185.642 Z M 156.813 185.642 L 164.859 185.642 L 164.859 193.689 L 156.813 193.689 L 156.813 185.642 Z M 164.859 185.642 L 172.908 185.642 L 172.908 193.689 L 164.859 193.689 L 164.859 185.642 Z M 189.001 185.642 L 197.05 185.642 L 197.05 193.689 L 189.001 193.689 L 189.001 185.642 Z M 205.097 185.642 L 213.143 185.642 L 213.143 193.689 L 205.097 193.689 L 205.097 185.642 Z M 213.143 185.642 L 221.189 185.642 L 221.189 193.689 L 213.143 193.689 L 213.143 185.642 Z M 221.189 185.642 L 229.239 185.642 L 229.239 193.689 L 221.189 193.689 L 221.189 185.642 Z M 237.285 185.642 L 245.331 185.642 L 245.331 193.689 L 237.285 193.689 L 237.285 185.642 Z M 44.153 193.689 L 52.201 193.689 L 52.201 201.735 L 44.153 201.735 L 44.153 193.689 Z M 60.248 193.689 L 68.295 193.689 L 68.295 201.735 L 60.248 201.735 L 60.248 193.689 Z M 68.295 193.689 L 76.34 193.689 L 76.34 201.735 L 68.295 201.735 L 68.295 193.689 Z M 76.34 193.689 L 84.389 193.689 L 84.389 201.735 L 76.34 201.735 L 76.34 193.689 Z M 92.436 193.689 L 100.483 193.689 L 100.483 201.735 L 92.436 201.735 L 92.436 193.689 Z M 108.531 193.689 L 116.578 193.689 L 116.578 201.735 L 108.531 201.735 L 108.531 193.689 Z M 116.578 193.689 L 124.625 193.689 L 124.625 201.735 L 116.578 201.735 L 116.578 193.689 Z M 132.671 193.689 L 140.72 193.689 L 140.72 201.735 L 132.671 201.735 L 132.671 193.689 Z M 140.72 193.689 L 148.767 193.689 L 148.767 201.735 L 140.72 201.735 L 140.72 193.689 Z M 148.767 193.689 L 156.813 193.689 L 156.813 201.735 L 148.767 201.735 L 148.767 193.689 Z M 156.813 193.689 L 164.859 193.689 L 164.859 201.735 L 156.813 201.735 L 156.813 193.689 Z M 172.908 193.689 L 180.955 193.689 L 180.955 201.735 L 172.908 201.735 L 172.908 193.689 Z M 189.001 193.689 L 197.05 193.689 L 197.05 201.735 L 189.001 201.735 L 189.001 193.689 Z M 205.097 193.689 L 213.143 193.689 L 213.143 201.735 L 205.097 201.735 L 205.097 193.689 Z M 213.143 193.689 L 221.189 193.689 L 221.189 201.735 L 213.143 201.735 L 213.143 193.689 Z M 221.189 193.689 L 229.239 193.689 L 229.239 201.735 L 221.189 201.735 L 221.189 193.689 Z M 237.285 193.689 L 245.331 193.689 L 245.331 201.735 L 237.285 201.735 L 237.285 193.689 Z M 44.153 201.735 L 52.201 201.735 L 52.201 209.784 L 44.153 209.784 L 44.153 201.735 Z M 60.248 201.735 L 68.295 201.735 L 68.295 209.784 L 60.248 209.784 L 60.248 201.735 Z M 68.295 201.735 L 76.34 201.735 L 76.34 209.784 L 68.295 209.784 L 68.295 201.735 Z M 76.34 201.735 L 84.389 201.735 L 84.389 209.784 L 76.34 209.784 L 76.34 201.735 Z M 92.436 201.735 L 100.483 201.735 L 100.483 209.784 L 92.436 209.784 L 92.436 201.735 Z M 116.578 201.735 L 124.625 201.735 L 124.625 209.784 L 116.578 209.784 L 116.578 201.735 Z M 132.671 201.735 L 140.72 201.735 L 140.72 209.784 L 132.671 209.784 L 132.671 201.735 Z M 140.72 201.735 L 148.767 201.735 L 148.767 209.784 L 140.72 209.784 L 140.72 201.735 Z M 148.767 201.735 L 156.813 201.735 L 156.813 209.784 L 148.767 209.784 L 148.767 201.735 Z M 164.859 201.735 L 172.908 201.735 L 172.908 209.784 L 164.859 209.784 L 164.859 201.735 Z M 189.001 201.735 L 197.05 201.735 L 197.05 209.784 L 189.001 209.784 L 189.001 201.735 Z M 205.097 201.735 L 213.143 201.735 L 213.143 209.784 L 205.097 209.784 L 205.097 201.735 Z M 213.143 201.735 L 221.189 201.735 L 221.189 209.784 L 213.143 209.784 L 213.143 201.735 Z M 221.189 201.735 L 229.239 201.735 L 229.239 209.784 L 221.189 209.784 L 221.189 201.735 Z M 237.285 201.735 L 245.331 201.735 L 245.331 209.784 L 237.285 209.784 L 237.285 201.735 Z M 44.153 209.784 L 52.201 209.784 L 52.201 217.831 L 44.153 217.831 L 44.153 209.784 Z M 92.436 209.784 L 100.483 209.784 L 100.483 217.831 L 92.436 217.831 L 92.436 209.784 Z M 132.671 209.784 L 140.72 209.784 L 140.72 217.831 L 132.671 217.831 L 132.671 209.784 Z M 140.72 209.784 L 148.767 209.784 L 148.767 217.831 L 140.72 217.831 L 140.72 209.784 Z M 156.813 209.784 L 164.859 209.784 L 164.859 217.831 L 156.813 217.831 L 156.813 209.784 Z M 189.001 209.784 L 197.05 209.784 L 197.05 217.831 L 189.001 217.831 L 189.001 209.784 Z M 237.285 209.784 L 245.331 209.784 L 245.331 217.831 L 237.285 217.831 L 237.285 209.784 Z M 44.153 217.831 L 52.201 217.831 L 52.201 225.878 L 44.153 225.878 L 44.153 217.831 Z M 52.201 217.831 L 60.248 217.831 L 60.248 225.878 L 52.201 225.878 L 52.201 217.831 Z M 60.248 217.831 L 68.295 217.831 L 68.295 225.878 L 60.248 225.878 L 60.248 217.831 Z M 68.295 217.831 L 76.34 217.831 L 76.34 225.878 L 68.295 225.878 L 68.295 217.831 Z M 76.34 217.831 L 84.389 217.831 L 84.389 225.878 L 76.34 225.878 L 76.34 217.831 Z M 84.389 217.831 L 92.436 217.831 L 92.436 225.878 L 84.389 225.878 L 84.389 217.831 Z M 92.436 217.831 L 100.483 217.831 L 100.483 225.878 L 92.436 225.878 L 92.436 217.831 Z M 108.531 217.831 L 116.578 217.831 L 116.578 225.878 L 108.531 225.878 L 108.531 217.831 Z M 124.625 217.831 L 132.671 217.831 L 132.671 225.878 L 124.625 225.878 L 124.625 217.831 Z M 140.72 217.831 L 148.767 217.831 L 148.767 225.878 L 140.72 225.878 L 140.72 217.831 Z M 156.813 217.831 L 164.859 217.831 L 164.859 225.878 L 156.813 225.878 L 156.813 217.831 Z M 172.908 217.831 L 180.955 217.831 L 180.955 225.878 L 172.908 225.878 L 172.908 217.831 Z M 189.001 217.831 L 197.05 217.831 L 197.05 225.878 L 189.001 225.878 L 189.001 217.831 Z M 197.05 217.831 L 205.097 217.831 L 205.097 225.878 L 197.05 225.878 L 197.05 217.831 Z M 205.097 217.831 L 213.143 217.831 L 213.143 225.878 L 205.097 225.878 L 205.097 217.831 Z M 213.143 217.831 L 221.189 217.831 L 221.189 225.878 L 213.143 225.878 L 213.143 217.831 Z M 221.189 217.831 L 229.239 217.831 L 229.239 225.878 L 221.189 225.878 L 221.189 217.831 Z M 229.239 217.831 L 237.285 217.831 L 237.285 225.878 L 229.239 225.878 L 229.239 217.831 Z M 237.285 217.831 L 245.331 217.831 L 245.331 225.878 L 237.285 225.878 L 237.285 217.831 Z M 124.625 225.878 L 132.671 225.878 L 132.671 233.923 L 124.625 233.923 L 124.625 225.878 Z M 132.671 225.878 L 140.72 225.878 L 140.72 233.923 L 132.671 233.923 L 132.671 225.878 Z M 148.767 225.878 L 156.813 225.878 L 156.813 233.923 L 148.767 233.923 L 148.767 225.878 Z M 156.813 225.878 L 164.859 225.878 L 164.859 233.923 L 156.813 233.923 L 156.813 225.878 Z M 164.859 225.878 L 172.908 225.878 L 172.908 233.923 L 164.859 233.923 L 164.859 225.878 Z M 172.908 225.878 L 180.955 225.878 L 180.955 233.923 L 172.908 233.923 L 172.908 225.878 Z M 68.295 233.923 L 76.34 233.923 L 76.34 241.972 L 68.295 241.972 L 68.295 233.923 Z M 76.34 233.923 L 84.389 233.923 L 84.389 241.972 L 76.34 241.972 L 76.34 233.923 Z M 92.436 233.923 L 100.483 233.923 L 100.483 241.972 L 92.436 241.972 L 92.436 233.923 Z M 100.483 233.923 L 108.531 233.923 L 108.531 241.972 L 100.483 241.972 L 100.483 233.923 Z M 124.625 233.923 L 132.671 233.923 L 132.671 241.972 L 124.625 241.972 L 124.625 233.923 Z M 132.671 233.923 L 140.72 233.923 L 140.72 241.972 L 132.671 241.972 L 132.671 233.923 Z M 172.908 233.923 L 180.955 233.923 L 180.955 241.972 L 172.908 241.972 L 172.908 233.923 Z M 213.143 233.923 L 221.189 233.923 L 221.189 241.972 L 213.143 241.972 L 213.143 233.923 Z M 221.189 233.923 L 229.239 233.923 L 229.239 241.972 L 221.189 241.972 L 221.189 233.923 Z M 44.153 241.972 L 52.201 241.972 L 52.201 250.019 L 44.153 250.019 L 44.153 241.972 Z M 60.248 241.972 L 68.295 241.972 L 68.295 250.019 L 60.248 250.019 L 60.248 241.972 Z M 68.295 241.972 L 76.34 241.972 L 76.34 250.019 L 68.295 250.019 L 68.295 241.972 Z M 76.34 241.972 L 84.389 241.972 L 84.389 250.019 L 76.34 250.019 L 76.34 241.972 Z M 84.389 241.972 L 92.436 241.972 L 92.436 250.019 L 84.389 250.019 L 84.389 241.972 Z M 108.531 241.972 L 116.578 241.972 L 116.578 250.019 L 108.531 250.019 L 108.531 241.972 Z M 124.625 241.972 L 132.671 241.972 L 132.671 250.019 L 124.625 250.019 L 124.625 241.972 Z M 140.72 241.972 L 148.767 241.972 L 148.767 250.019 L 140.72 250.019 L 140.72 241.972 Z M 148.767 241.972 L 156.813 241.972 L 156.813 250.019 L 148.767 250.019 L 148.767 241.972 Z M 164.859 241.972 L 172.908 241.972 L 172.908 250.019 L 164.859 250.019 L 164.859 241.972 Z M 197.05 241.972 L 205.097 241.972 L 205.097 250.019 L 197.05 250.019 L 197.05 241.972 Z M 205.097 241.972 L 213.143 241.972 L 213.143 250.019 L 205.097 250.019 L 205.097 241.972 Z M 213.143 241.972 L 221.189 241.972 L 221.189 250.019 L 213.143 250.019 L 213.143 241.972 Z M 221.189 241.972 L 229.239 241.972 L 229.239 250.019 L 221.189 250.019 L 221.189 241.972 Z M 52.201 250.019 L 60.248 250.019 L 60.248 258.065 L 52.201 258.065 L 52.201 250.019 Z M 68.295 250.019 L 76.34 250.019 L 76.34 258.065 L 68.295 258.065 L 68.295 250.019 Z M 92.436 250.019 L 100.483 250.019 L 100.483 258.065 L 92.436 258.065 L 92.436 250.019 Z M 100.483 250.019 L 108.531 250.019 L 108.531 258.065 L 100.483 258.065 L 100.483 250.019 Z M 108.531 250.019 L 116.578 250.019 L 116.578 258.065 L 108.531 258.065 L 108.531 250.019 Z M 116.578 250.019 L 124.625 250.019 L 124.625 258.065 L 116.578 258.065 L 116.578 250.019 Z M 132.671 250.019 L 140.72 250.019 L 140.72 258.065 L 132.671 258.065 L 132.671 250.019 Z M 140.72 250.019 L 148.767 250.019 L 148.767 258.065 L 140.72 258.065 L 140.72 250.019 Z M 148.767 250.019 L 156.813 250.019 L 156.813 258.065 L 148.767 258.065 L 148.767 250.019 Z M 156.813 250.019 L 164.859 250.019 L 164.859 258.065 L 156.813 258.065 L 156.813 250.019 Z M 164.859 250.019 L 172.908 250.019 L 172.908 258.065 L 164.859 258.065 L 164.859 250.019 Z M 172.908 250.019 L 180.955 250.019 L 180.955 258.065 L 172.908 258.065 L 172.908 250.019 Z M 180.955 250.019 L 189.001 250.019 L 189.001 258.065 L 180.955 258.065 L 180.955 250.019 Z M 189.001 250.019 L 197.05 250.019 L 197.05 258.065 L 189.001 258.065 L 189.001 250.019 Z M 197.05 250.019 L 205.097 250.019 L 205.097 258.065 L 197.05 258.065 L 197.05 250.019 Z M 205.097 250.019 L 213.143 250.019 L 213.143 258.065 L 205.097 258.065 L 205.097 250.019 Z M 221.189 250.019 L 229.239 250.019 L 229.239 258.065 L 221.189 258.065 L 221.189 250.019 Z M 237.285 250.019 L 245.331 250.019 L 245.331 258.065 L 237.285 258.065 L 237.285 250.019 Z M 52.201 258.065 L 60.248 258.065 L 60.248 266.112 L 52.201 266.112 L 52.201 258.065 Z M 60.248 258.065 L 68.295 258.065 L 68.295 266.112 L 60.248 266.112 L 60.248 258.065 Z M 76.34 258.065 L 84.389 258.065 L 84.389 266.112 L 76.34 266.112 L 76.34 258.065 Z M 84.389 258.065 L 92.436 258.065 L 92.436 266.112 L 84.389 266.112 L 84.389 258.065 Z M 140.72 258.065 L 148.767 258.065 L 148.767 266.112 L 140.72 266.112 L 140.72 258.065 Z M 156.813 258.065 L 164.859 258.065 L 164.859 266.112 L 156.813 266.112 L 156.813 258.065 Z M 189.001 258.065 L 197.05 258.065 L 197.05 266.112 L 189.001 266.112 L 189.001 258.065 Z M 205.097 258.065 L 213.143 258.065 L 213.143 266.112 L 205.097 266.112 L 205.097 258.065 Z M 213.143 258.065 L 221.189 258.065 L 221.189 266.112 L 213.143 266.112 L 213.143 258.065 Z M 221.189 258.065 L 229.239 258.065 L 229.239 266.112 L 221.189 266.112 L 221.189 258.065 Z M 237.285 258.065 L 245.331 258.065 L 245.331 266.112 L 237.285 266.112 L 237.285 258.065 Z M 52.201 266.112 L 60.248 266.112 L 60.248 274.161 L 52.201 274.161 L 52.201 266.112 Z M 76.34 266.112 L 84.389 266.112 L 84.389 274.161 L 76.34 274.161 L 76.34 266.112 Z M 92.436 266.112 L 100.483 266.112 L 100.483 274.161 L 92.436 274.161 L 92.436 266.112 Z M 108.531 266.112 L 116.578 266.112 L 116.578 274.161 L 108.531 274.161 L 108.531 266.112 Z M 124.625 266.112 L 132.671 266.112 L 132.671 274.161 L 124.625 274.161 L 124.625 266.112 Z M 132.671 266.112 L 140.72 266.112 L 140.72 274.161 L 132.671 274.161 L 132.671 266.112 Z M 140.72 266.112 L 148.767 266.112 L 148.767 274.161 L 140.72 274.161 L 140.72 266.112 Z M 148.767 266.112 L 156.813 266.112 L 156.813 274.161 L 148.767 274.161 L 148.767 266.112 Z M 156.813 266.112 L 164.859 266.112 L 164.859 274.161 L 156.813 274.161 L 156.813 266.112 Z M 164.859 266.112 L 172.908 266.112 L 172.908 274.161 L 164.859 274.161 L 164.859 266.112 Z M 172.908 266.112 L 180.955 266.112 L 180.955 274.161 L 172.908 274.161 L 172.908 266.112 Z M 189.001 266.112 L 197.05 266.112 L 197.05 274.161 L 189.001 274.161 L 189.001 266.112 Z M 205.097 266.112 L 213.143 266.112 L 213.143 274.161 L 205.097 274.161 L 205.097 266.112 Z M 213.143 266.112 L 221.189 266.112 L 221.189 274.161 L 213.143 274.161 L 213.143 266.112 Z M 229.239 266.112 L 237.285 266.112 L 237.285 274.161 L 229.239 274.161 L 229.239 266.112 Z M 237.285 266.112 L 245.331 266.112 L 245.331 274.161 L 237.285 274.161 L 237.285 266.112 Z M 44.153 274.161 L 52.201 274.161 L 52.201 282.208 L 44.153 282.208 L 44.153 274.161 Z M 68.295 274.161 L 76.34 274.161 L 76.34 282.208 L 68.295 282.208 L 68.295 274.161 Z M 108.531 274.161 L 116.578 274.161 L 116.578 282.208 L 108.531 282.208 L 108.531 274.161 Z M 156.813 274.161 L 164.859 274.161 L 164.859 282.208 L 156.813 282.208 L 156.813 274.161 Z M 172.908 274.161 L 180.955 274.161 L 180.955 282.208 L 172.908 282.208 L 172.908 274.161 Z M 180.955 274.161 L 189.001 274.161 L 189.001 282.208 L 180.955 282.208 L 180.955 274.161 Z M 205.097 274.161 L 213.143 274.161 L 213.143 282.208 L 205.097 282.208 L 205.097 274.161 Z M 213.143 274.161 L 221.189 274.161 L 221.189 282.208 L 213.143 282.208 L 213.143 274.161 Z M 44.153 282.208 L 52.201 282.208 L 52.201 290.254 L 44.153 290.254 L 44.153 282.208 Z M 52.201 282.208 L 60.248 282.208 L 60.248 290.254 L 52.201 290.254 L 52.201 282.208 Z M 60.248 282.208 L 68.295 282.208 L 68.295 290.254 L 60.248 290.254 L 60.248 282.208 Z M 68.295 282.208 L 76.34 282.208 L 76.34 290.254 L 68.295 290.254 L 68.295 282.208 Z M 76.34 282.208 L 84.389 282.208 L 84.389 290.254 L 76.34 290.254 L 76.34 282.208 Z M 84.389 282.208 L 92.436 282.208 L 92.436 290.254 L 84.389 290.254 L 84.389 282.208 Z M 92.436 282.208 L 100.483 282.208 L 100.483 290.254 L 92.436 290.254 L 92.436 282.208 Z M 108.531 282.208 L 116.578 282.208 L 116.578 290.254 L 108.531 290.254 L 108.531 282.208 Z M 116.578 282.208 L 124.625 282.208 L 124.625 290.254 L 116.578 290.254 L 116.578 282.208 Z M 132.671 282.208 L 140.72 282.208 L 140.72 290.254 L 132.671 290.254 L 132.671 282.208 Z M 140.72 282.208 L 148.767 282.208 L 148.767 290.254 L 140.72 290.254 L 140.72 282.208 Z M 172.908 282.208 L 180.955 282.208 L 180.955 290.254 L 172.908 290.254 L 172.908 282.208 Z M 221.189 282.208 L 229.239 282.208 L 229.239 290.254 L 221.189 290.254 L 221.189 282.208 Z M 229.239 282.208 L 237.285 282.208 L 237.285 290.254 L 229.239 290.254 L 229.239 282.208 Z M 237.285 282.208 L 245.331 282.208 L 245.331 290.254 L 237.285 290.254 L 237.285 282.208 Z M 44.153 290.254 L 52.201 290.254 L 52.201 298.303 L 44.153 298.303 L 44.153 290.254 Z M 76.34 290.254 L 84.389 290.254 L 84.389 298.303 L 76.34 298.303 L 76.34 290.254 Z M 84.389 290.254 L 92.436 290.254 L 92.436 298.303 L 84.389 298.303 L 84.389 290.254 Z M 100.483 290.254 L 108.531 290.254 L 108.531 298.303 L 100.483 298.303 L 100.483 290.254 Z M 108.531 290.254 L 116.578 290.254 L 116.578 298.303 L 108.531 298.303 L 108.531 290.254 Z M 124.625 290.254 L 132.671 290.254 L 132.671 298.303 L 124.625 298.303 L 124.625 290.254 Z M 132.671 290.254 L 140.72 290.254 L 140.72 298.303 L 132.671 298.303 L 132.671 290.254 Z M 148.767 290.254 L 156.813 290.254 L 156.813 298.303 L 148.767 298.303 L 148.767 290.254 Z M 164.859 290.254 L 172.908 290.254 L 172.908 298.303 L 164.859 298.303 L 164.859 290.254 Z M 180.955 290.254 L 189.001 290.254 L 189.001 298.303 L 180.955 298.303 L 180.955 290.254 Z M 189.001 290.254 L 197.05 290.254 L 197.05 298.303 L 189.001 298.303 L 189.001 290.254 Z M 197.05 290.254 L 205.097 290.254 L 205.097 298.303 L 197.05 298.303 L 197.05 290.254 Z M 205.097 290.254 L 213.143 290.254 L 213.143 298.303 L 205.097 298.303 L 205.097 290.254 Z M 213.143 290.254 L 221.189 290.254 L 221.189 298.303 L 213.143 298.303 L 213.143 290.254 Z M 221.189 290.254 L 229.239 290.254 L 229.239 298.303 L 221.189 298.303 L 221.189 290.254 Z M 237.285 290.254 L 245.331 290.254 L 245.331 298.303 L 237.285 298.303 L 237.285 290.254 Z M 44.153 298.303 L 52.201 298.303 L 52.201 306.35 L 44.153 306.35 L 44.153 298.303 Z M 60.248 298.303 L 68.295 298.303 L 68.295 306.35 L 60.248 306.35 L 60.248 298.303 Z M 84.389 298.303 L 92.436 298.303 L 92.436 306.35 L 84.389 306.35 L 84.389 298.303 Z M 92.436 298.303 L 100.483 298.303 L 100.483 306.35 L 92.436 306.35 L 92.436 298.303 Z M 100.483 298.303 L 108.531 298.303 L 108.531 306.35 L 100.483 306.35 L 100.483 298.303 Z M 108.531 298.303 L 116.578 298.303 L 116.578 306.35 L 108.531 306.35 L 108.531 298.303 Z M 140.72 298.303 L 148.767 298.303 L 148.767 306.35 L 140.72 306.35 L 140.72 298.303 Z M 172.908 298.303 L 180.955 298.303 L 180.955 306.35 L 172.908 306.35 L 172.908 298.303 Z M 180.955 298.303 L 189.001 298.303 L 189.001 306.35 L 180.955 306.35 L 180.955 298.303 Z M 189.001 298.303 L 197.05 298.303 L 197.05 306.35 L 189.001 306.35 L 189.001 298.303 Z M 197.05 298.303 L 205.097 298.303 L 205.097 306.35 L 197.05 306.35 L 197.05 298.303 Z M 205.097 298.303 L 213.143 298.303 L 213.143 306.35 L 205.097 306.35 L 205.097 298.303 Z M 213.143 298.303 L 221.189 298.303 L 221.189 306.35 L 213.143 306.35 L 213.143 298.303 Z M 229.239 298.303 L 237.285 298.303 L 237.285 306.35 L 229.239 306.35 L 229.239 298.303 Z M 237.285 298.303 L 245.331 298.303 L 245.331 306.35 L 237.285 306.35 L 237.285 298.303 Z M 108.531 306.35 L 116.578 306.35 L 116.578 314.395 L 108.531 314.395 L 108.531 306.35 Z M 132.671 306.35 L 140.72 306.35 L 140.72 314.395 L 132.671 314.395 L 132.671 306.35 Z M 148.767 306.35 L 156.813 306.35 L 156.813 314.395 L 148.767 314.395 L 148.767 306.35 Z M 156.813 306.35 L 164.859 306.35 L 164.859 314.395 L 156.813 314.395 L 156.813 306.35 Z M 164.859 306.35 L 172.908 306.35 L 172.908 314.395 L 164.859 314.395 L 164.859 306.35 Z M 172.908 306.35 L 180.955 306.35 L 180.955 314.395 L 172.908 314.395 L 172.908 306.35 Z M 205.097 306.35 L 213.143 306.35 L 213.143 314.395 L 205.097 314.395 L 205.097 306.35 Z M 213.143 306.35 L 221.189 306.35 L 221.189 314.395 L 213.143 314.395 L 213.143 306.35 Z M 221.189 306.35 L 229.239 306.35 L 229.239 314.395 L 221.189 314.395 L 221.189 306.35 Z M 237.285 306.35 L 245.331 306.35 L 245.331 314.395 L 237.285 314.395 L 237.285 306.35 Z M 44.153 314.395 L 52.201 314.395 L 52.201 322.442 L 44.153 322.442 L 44.153 314.395 Z M 52.201 314.395 L 60.248 314.395 L 60.248 322.442 L 52.201 322.442 L 52.201 314.395 Z M 60.248 314.395 L 68.295 314.395 L 68.295 322.442 L 60.248 322.442 L 60.248 314.395 Z M 68.295 314.395 L 76.34 314.395 L 76.34 322.442 L 68.295 322.442 L 68.295 314.395 Z M 76.34 314.395 L 84.389 314.395 L 84.389 322.442 L 76.34 322.442 L 76.34 314.395 Z M 84.389 314.395 L 92.436 314.395 L 92.436 322.442 L 84.389 322.442 L 84.389 314.395 Z M 92.436 314.395 L 100.483 314.395 L 100.483 322.442 L 92.436 322.442 L 92.436 314.395 Z M 108.531 314.395 L 116.578 314.395 L 116.578 322.442 L 108.531 322.442 L 108.531 314.395 Z M 116.578 314.395 L 124.625 314.395 L 124.625 322.442 L 116.578 322.442 L 116.578 314.395 Z M 132.671 314.395 L 140.72 314.395 L 140.72 322.442 L 132.671 322.442 L 132.671 314.395 Z M 140.72 314.395 L 148.767 314.395 L 148.767 322.442 L 140.72 322.442 L 140.72 314.395 Z M 148.767 314.395 L 156.813 314.395 L 156.813 322.442 L 148.767 322.442 L 148.767 314.395 Z M 156.813 314.395 L 164.859 314.395 L 164.859 322.442 L 156.813 322.442 L 156.813 314.395 Z M 164.859 314.395 L 172.908 314.395 L 172.908 322.442 L 164.859 322.442 L 164.859 314.395 Z M 172.908 314.395 L 180.955 314.395 L 180.955 322.442 L 172.908 322.442 L 172.908 314.395 Z M 189.001 314.395 L 197.05 314.395 L 197.05 322.442 L 189.001 322.442 L 189.001 314.395 Z M 205.097 314.395 L 213.143 314.395 L 213.143 322.442 L 205.097 322.442 L 205.097 314.395 Z M 213.143 314.395 L 221.189 314.395 L 221.189 322.442 L 213.143 322.442 L 213.143 314.395 Z M 237.285 314.395 L 245.331 314.395 L 245.331 322.442 L 237.285 322.442 L 237.285 314.395 Z M 44.153 322.442 L 52.201 322.442 L 52.201 330.491 L 44.153 330.491 L 44.153 322.442 Z M 92.436 322.442 L 100.483 322.442 L 100.483 330.491 L 92.436 330.491 L 92.436 322.442 Z M 132.671 322.442 L 140.72 322.442 L 140.72 330.491 L 132.671 330.491 L 132.671 322.442 Z M 156.813 322.442 L 164.859 322.442 L 164.859 330.491 L 156.813 330.491 L 156.813 322.442 Z M 172.908 322.442 L 180.955 322.442 L 180.955 330.491 L 172.908 330.491 L 172.908 322.442 Z M 205.097 322.442 L 213.143 322.442 L 213.143 330.491 L 205.097 330.491 L 205.097 322.442 Z M 213.143 322.442 L 221.189 322.442 L 221.189 330.491 L 213.143 330.491 L 213.143 322.442 Z M 229.239 322.442 L 237.285 322.442 L 237.285 330.491 L 229.239 330.491 L 229.239 322.442 Z M 44.153 330.491 L 52.201 330.491 L 52.201 338.537 L 44.153 338.537 L 44.153 330.491 Z M 60.248 330.491 L 68.295 330.491 L 68.295 338.537 L 60.248 338.537 L 60.248 330.491 Z M 68.295 330.491 L 76.34 330.491 L 76.34 338.537 L 68.295 338.537 L 68.295 330.491 Z M 76.34 330.491 L 84.389 330.491 L 84.389 338.537 L 76.34 338.537 L 76.34 330.491 Z M 92.436 330.491 L 100.483 330.491 L 100.483 338.537 L 92.436 338.537 L 92.436 330.491 Z M 108.531 330.491 L 116.578 330.491 L 116.578 338.537 L 108.531 338.537 L 108.531 330.491 Z M 116.578 330.491 L 124.625 330.491 L 124.625 338.537 L 116.578 338.537 L 116.578 330.491 Z M 124.625 330.491 L 132.671 330.491 L 132.671 338.537 L 124.625 338.537 L 124.625 330.491 Z M 140.72 330.491 L 148.767 330.491 L 148.767 338.537 L 140.72 338.537 L 140.72 330.491 Z M 148.767 330.491 L 156.813 330.491 L 156.813 338.537 L 148.767 338.537 L 148.767 330.491 Z M 164.859 330.491 L 172.908 330.491 L 172.908 338.537 L 164.859 338.537 L 164.859 330.491 Z M 172.908 330.491 L 180.955 330.491 L 180.955 338.537 L 172.908 338.537 L 172.908 330.491 Z M 180.955 330.491 L 189.001 330.491 L 189.001 338.537 L 180.955 338.537 L 180.955 330.491 Z M 189.001 330.491 L 197.05 330.491 L 197.05 338.537 L 189.001 338.537 L 189.001 330.491 Z M 197.05 330.491 L 205.097 330.491 L 205.097 338.537 L 197.05 338.537 L 197.05 330.491 Z M 205.097 330.491 L 213.143 330.491 L 213.143 338.537 L 205.097 338.537 L 205.097 330.491 Z M 213.143 330.491 L 221.189 330.491 L 221.189 338.537 L 213.143 338.537 L 213.143 330.491 Z M 44.153 338.537 L 52.201 338.537 L 52.201 346.584 L 44.153 346.584 L 44.153 338.537 Z M 60.248 338.537 L 68.295 338.537 L 68.295 346.584 L 60.248 346.584 L 60.248 338.537 Z M 68.295 338.537 L 76.34 338.537 L 76.34 346.584 L 68.295 346.584 L 68.295 338.537 Z M 76.34 338.537 L 84.389 338.537 L 84.389 346.584 L 76.34 346.584 L 76.34 338.537 Z M 92.436 338.537 L 100.483 338.537 L 100.483 346.584 L 92.436 346.584 L 92.436 338.537 Z M 108.531 338.537 L 116.578 338.537 L 116.578 346.584 L 108.531 346.584 L 108.531 338.537 Z M 132.671 338.537 L 140.72 338.537 L 140.72 346.584 L 132.671 346.584 L 132.671 338.537 Z M 156.813 338.537 L 164.859 338.537 L 164.859 346.584 L 156.813 346.584 L 156.813 338.537 Z M 164.859 338.537 L 172.908 338.537 L 172.908 346.584 L 164.859 346.584 L 164.859 338.537 Z M 172.908 338.537 L 180.955 338.537 L 180.955 346.584 L 172.908 346.584 L 172.908 338.537 Z M 189.001 338.537 L 197.05 338.537 L 197.05 346.584 L 189.001 346.584 L 189.001 338.537 Z M 237.285 338.537 L 245.331 338.537 L 245.331 346.584 L 237.285 346.584 L 237.285 338.537 Z M 44.153 346.584 L 52.201 346.584 L 52.201 354.631 L 44.153 354.631 L 44.153 346.584 Z M 60.248 346.584 L 68.295 346.584 L 68.295 354.631 L 60.248 354.631 L 60.248 346.584 Z M 68.295 346.584 L 76.34 346.584 L 76.34 354.631 L 68.295 354.631 L 68.295 346.584 Z M 76.34 346.584 L 84.389 346.584 L 84.389 354.631 L 76.34 354.631 L 76.34 346.584 Z M 92.436 346.584 L 100.483 346.584 L 100.483 354.631 L 92.436 354.631 L 92.436 346.584 Z M 116.578 346.584 L 124.625 346.584 L 124.625 354.631 L 116.578 354.631 L 116.578 346.584 Z M 124.625 346.584 L 132.671 346.584 L 132.671 354.631 L 124.625 354.631 L 124.625 346.584 Z M 140.72 346.584 L 148.767 346.584 L 148.767 354.631 L 140.72 354.631 L 140.72 346.584 Z M 148.767 346.584 L 156.813 346.584 L 156.813 354.631 L 148.767 354.631 L 148.767 346.584 Z M 164.859 346.584 L 172.908 346.584 L 172.908 354.631 L 164.859 354.631 L 164.859 346.584 Z M 180.955 346.584 L 189.001 346.584 L 189.001 354.631 L 180.955 354.631 L 180.955 346.584 Z M 189.001 346.584 L 197.05 346.584 L 197.05 354.631 L 189.001 354.631 L 189.001 346.584 Z M 197.05 346.584 L 205.097 346.584 L 205.097 354.631 L 197.05 354.631 L 197.05 346.584 Z M 205.097 346.584 L 213.143 346.584 L 213.143 354.631 L 205.097 354.631 L 205.097 346.584 Z M 229.239 346.584 L 237.285 346.584 L 237.285 354.631 L 229.239 354.631 L 229.239 346.584 Z M 237.285 346.584 L 245.331 346.584 L 245.331 354.631 L 237.285 354.631 L 237.285 346.584 Z M 44.153 354.631 L 52.201 354.631 L 52.201 362.68 L 44.153 362.68 L 44.153 354.631 Z M 92.436 354.631 L 100.483 354.631 L 100.483 362.68 L 92.436 362.68 L 92.436 354.631 Z M 116.578 354.631 L 124.625 354.631 L 124.625 362.68 L 116.578 362.68 L 116.578 354.631 Z M 124.625 354.631 L 132.671 354.631 L 132.671 362.68 L 124.625 362.68 L 124.625 354.631 Z M 132.671 354.631 L 140.72 354.631 L 140.72 362.68 L 132.671 362.68 L 132.671 354.631 Z M 148.767 354.631 L 156.813 354.631 L 156.813 362.68 L 148.767 362.68 L 148.767 354.631 Z M 172.908 354.631 L 180.955 354.631 L 180.955 362.68 L 172.908 362.68 L 172.908 354.631 Z M 213.143 354.631 L 221.189 354.631 L 221.189 362.68 L 213.143 362.68 L 213.143 354.631 Z M 221.189 354.631 L 229.239 354.631 L 229.239 362.68 L 221.189 362.68 L 221.189 354.631 Z M 229.239 354.631 L 237.285 354.631 L 237.285 362.68 L 229.239 362.68 L 229.239 354.631 Z M 237.285 354.631 L 245.331 354.631 L 245.331 362.68 L 237.285 362.68 L 237.285 354.631 Z M 44.153 362.68 L 52.201 362.68 L 52.201 370.726 L 44.153 370.726 L 44.153 362.68 Z M 52.201 362.68 L 60.248 362.68 L 60.248 370.726 L 52.201 370.726 L 52.201 362.68 Z M 60.248 362.68 L 68.295 362.68 L 68.295 370.726 L 60.248 370.726 L 60.248 362.68 Z M 68.295 362.68 L 76.34 362.68 L 76.34 370.726 L 68.295 370.726 L 68.295 362.68 Z M 76.34 362.68 L 84.389 362.68 L 84.389 370.726 L 76.34 370.726 L 76.34 362.68 Z M 84.389 362.68 L 92.436 362.68 L 92.436 370.726 L 84.389 370.726 L 84.389 362.68 Z M 92.436 362.68 L 100.483 362.68 L 100.483 370.726 L 92.436 370.726 L 92.436 362.68 Z M 140.72 362.68 L 148.767 362.68 L 148.767 370.726 L 140.72 370.726 L 140.72 362.68 Z M 156.813 362.68 L 164.859 362.68 L 164.859 370.726 L 156.813 370.726 L 156.813 362.68 Z M 180.955 362.68 L 189.001 362.68 L 189.001 370.726 L 180.955 370.726 L 180.955 362.68 Z M 213.143 362.68 L 221.189 362.68 L 221.189 370.726 L 213.143 370.726 L 213.143 362.68 Z M 237.285 362.68 L 245.331 362.68 L 245.331 370.726 L 237.285 370.726 L 237.285 362.68 Z" stroke="transparent" fill="black" style=""/>
  <path d="M 279.92523662109375 257.6602134277344 Q 279.92523662109375 252.88481342773437 278.03023662109376 249.81491342773438 Q 276.1352366210937 246.74501342773436 272.26943662109375 246.74501342773436 Q 271.20823662109376 246.74501342773436 269.99543662109375 246.8587134277344 Q 268.78263662109373 246.97241342773438 267.94883662109373 247.04821342773437 L 267.94883662109373 266.60461342773436 Q 268.85843662109374 267.2110134277344 270.37443662109376 267.5900134277344 Q 271.8904366210937 267.96901342773435 273.40643662109375 267.96901342773435 Q 276.74163662109373 267.96901342773435 278.33343662109377 265.27811342773435 Q 279.92523662109375 262.58721342773435 279.92523662109375 257.6602134277344 Z M 289.40023662109377 257.3570134277344 Q 289.40023662109377 261.45021342773435 288.49063662109376 264.8991134277344 Q 287.58103662109374 268.3480134277344 285.83763662109374 270.8115134277344 Q 284.0942366210937 273.2750134277344 281.44123662109376 274.6394134277344 Q 278.78823662109374 276.00381342773437 275.3014366210937 276.00381342773437 Q 271.73883662109375 276.00381342773437 267.94883662109373 274.26041342773436 L 267.94883662109373 287.6770134277344 L 258.62543662109374 287.6770134277344 L 258.62543662109374 240.68101342773437 Q 261.20263662109375 239.84721342773437 264.95473662109373 239.31661342773438 Q 268.70683662109377 238.7860134277344 272.34523662109376 238.7860134277344 Q 280.60743662109377 238.7860134277344 285.00383662109374 243.78881342773437 Q 289.40023662109377 248.79161342773438 289.40023662109377 257.3570134277344 Z M 310.87583662109375 268.4996134277344 Q 312.3918366210938 268.4996134277344 313.8320366210937 268.46171342773437 Q 315.2722366210937 268.4238134277344 316.33343662109377 268.27221342773436 L 316.33343662109377 260.08581342773437 Q 315.42383662109376 259.9342134277344 314.1352366210937 259.8205134277344 Q 312.84663662109375 259.7068134277344 311.78543662109377 259.7068134277344 Q 310.34523662109376 259.7068134277344 308.9808366210938 259.89631342773436 Q 307.6164366210937 260.08581342773437 306.5931366210938 260.5406134277344 Q 305.56983662109377 260.9954134277344 304.96343662109376 261.8292134277344 Q 304.35703662109376 262.66301342773437 304.35703662109376 264.02741342773436 Q 304.35703662109376 266.4530134277344 306.1762366210937 267.4763134277344 Q 307.99543662109375 268.4996134277344 310.87583662109375 268.4996134277344 Z M 310.04203662109376 238.6344134277344 Q 314.43843662109373 238.6344134277344 317.3567366210938 239.6577134277344 Q 320.27503662109376 240.68101342773437 322.01843662109377 242.53811342773437 Q 323.7618366210937 244.39521342773438 324.51983662109376 247.08611342773438 Q 325.27783662109374 249.77701342773437 325.27783662109374 253.1122134277344 L 325.27783662109374 274.3362134277344 Q 323.23123662109373 274.79101342773436 319.2138366210937 275.39741342773436 Q 315.19643662109377 276.00381342773437 310.19363662109373 276.00381342773437 Q 306.78263662109373 276.00381342773437 304.0159366210938 275.39741342773436 Q 301.24923662109376 274.79101342773436 299.27843662109376 273.3887134277344 Q 297.30763662109376 271.98641342773436 296.2464366210937 269.7503134277344 Q 295.18523662109374 267.5142134277344 295.18523662109374 264.25481342773435 Q 295.18523662109374 261.14701342773435 296.39803662109375 259.0246134277344 Q 297.61083662109377 256.90221342773435 299.6574366210937 255.61361342773438 Q 301.70403662109373 254.32501342773438 304.35703662109376 253.75651342773438 Q 307.0100366210938 253.18801342773438 309.8904366210937 253.18801342773438 Q 313.5288366210938 253.18801342773438 316.33343662109377 253.79441342773438 L 316.33343662109377 252.65741342773438 Q 316.33343662109377 250.0044134277344 314.6658366210938 248.22311342773438 Q 312.9982366210937 246.4418134277344 308.90503662109376 246.4418134277344 Q 306.25203662109374 246.4418134277344 303.7885366210937 246.82081342773438 Q 301.3250366210938 247.19981342773437 299.80903662109375 247.7304134277344 L 298.5204366210937 240.22621342773436 Q 300.26383662109373 239.61981342773439 303.44743662109374 239.12711342773437 Q 306.63103662109376 238.6344134277344 310.04203662109376 238.6344134277344 Z M 341.82643662109376 256.2200134277344 Q 341.82643662109376 260.61641342773436 343.41823662109374 262.9283134277344 Q 345.0100366210938 265.2402134277344 348.4210366210938 265.2402134277344 Q 349.93703662109374 265.2402134277344 351.26353662109375 264.86121342773436 Q 352.59003662109376 264.4822134277344 353.65123662109374 263.8758134277344 L 353.65123662109374 246.74501342773436 Q 352.59003662109376 246.51761342773437 351.75623662109376 246.4418134277344 Q 350.92243662109377 246.36601342773437 350.01283662109375 246.36601342773437 Q 341.82643662109376 246.36601342773437 341.82643662109376 256.2200134277344 Z M 363.05043662109375 270.84941342773436 Q 363.05043662109375 279.56641342773435 358.84353662109373 283.7354134277344 Q 354.63663662109377 287.90441342773437 345.3132366210937 287.90441342773437 Q 341.97803662109374 287.90441342773437 338.9081366210938 287.22221342773435 Q 335.83823662109376 286.5400134277344 333.03363662109376 285.63041342773437 L 334.77703662109377 277.7472134277344 Q 336.97523662109376 278.5810134277344 339.40083662109373 279.3011134277344 Q 341.82643662109376 280.0212134277344 345.46483662109375 280.0212134277344 Q 347.8904366210937 280.0212134277344 349.48223662109376 279.45271342773435 Q 351.07403662109374 278.8842134277344 351.98363662109375 277.89881342773435 Q 352.89323662109376 276.9134134277344 353.2722366210937 275.5869134277344 Q 353.65123662109374 274.26041342773436 353.65123662109374 272.7444134277344 L 353.65123662109374 271.3042134277344 Q 351.68043662109375 272.0622134277344 350.05073662109373 272.4412134277344 Q 348.4210366210938 272.82021342773436 346.52603662109374 272.82021342773436 Q 339.55243662109376 272.82021342773436 335.95193662109375 268.4238134277344 Q 332.35143662109374 264.02741342773436 332.35143662109374 256.2200134277344 Q 332.35143662109374 247.4272134277344 337.20263662109375 243.10661342773437 Q 342.05383662109375 238.7860134277344 350.3918366210938 238.7860134277344 Q 356.22843662109375 238.7860134277344 363.05043662109375 240.68101342773437 Z M 370.19983662109377 257.6602134277344 Q 370.19983662109377 252.9606134277344 371.64003662109377 249.39801342773438 Q 373.0802366210938 245.83541342773438 375.43003662109373 243.44771342773439 Q 377.77983662109375 241.06001342773436 380.81183662109373 239.84721342773437 Q 383.84383662109377 238.6344134277344 387.0274366210937 238.6344134277344 Q 394.9106366210938 238.6344134277344 399.00383662109374 243.29611342773438 Q 403.09703662109376 247.95781342773438 403.09703662109376 256.90221342773435 Q 403.09703662109376 257.81181342773436 403.0591366210937 258.7972134277344 Q 403.02123662109375 259.78261342773436 402.94543662109373 260.38901342773437 L 379.82643662109376 260.38901342773437 Q 379.82643662109376 263.8758134277344 382.70683662109377 265.88451342773436 Q 385.5872366210937 267.8932134277344 390.1352366210937 267.8932134277344 Q 392.9398366210937 267.8932134277344 395.47913662109374 267.2868134277344 Q 398.01843662109377 266.6804134277344 399.7618366210937 266.07401342773437 L 401.05043662109375 274.0330134277344 Q 398.6248366210937 274.86681342773437 395.89603662109374 275.4353134277344 Q 393.16723662109376 276.00381342773437 389.75623662109376 276.00381342773437 Q 385.20823662109376 276.00381342773437 381.60773662109375 274.8289134277344 Q 378.00723662109374 273.65401342773436 375.46793662109377 271.3421134277344 Q 372.92863662109374 269.0302134277344 371.56423662109376 265.6192134277344 Q 370.19983662109377 262.2082134277344 370.19983662109377 257.6602134277344 Z M 394.0768366210938 253.94601342773439 Q 394.0768366210938 252.50581342773438 393.69783662109376 251.17931342773437 Q 393.31883662109374 249.8528134277344 392.48503662109374 248.79161342773438 Q 391.65123662109374 247.7304134277344 390.36263662109377 247.08611342773438 Q 389.07403662109374 246.4418134277344 387.17903662109376 246.4418134277344 Q 385.35983662109373 246.4418134277344 384.0333366210937 247.04821342773437 Q 382.70683662109377 247.65461342773438 381.83513662109374 248.7158134277344 Q 380.96343662109376 249.77701342773437 380.47073662109375 251.1414134277344 Q 379.97803662109374 252.50581342773438 379.82643662109376 253.94601342773439 Z M 423.13243662109375 268.1206134277344 Q 426.54343662109375 268.1206134277344 428.36263662109377 267.62791342773437 Q 430.18183662109374 267.13521342773436 430.18183662109374 265.6192134277344 Q 430.18183662109374 264.63381342773437 429.61333662109377 263.9516134277344 Q 429.04483662109374 263.2694134277344 428.02153662109373 262.77671342773436 Q 426.9982366210937 262.28401342773435 425.67173662109377 261.8292134277344 Q 424.34523662109376 261.3744134277344 422.90503662109376 260.91961342773436 Q 420.85843662109374 260.31321342773435 418.7360366210938 259.5173134277344 Q 416.61363662109375 258.7214134277344 414.87023662109374 257.50861342773436 Q 413.12683662109373 256.2958134277344 411.98983662109373 254.43871342773437 Q 410.85283662109373 252.58161342773437 410.85283662109373 249.77701342773437 Q 410.85283662109373 247.50301342773437 411.72453662109376 245.49431342773437 Q 412.59623662109374 243.4856134277344 414.45333662109374 241.9317134277344 Q 416.31043662109374 240.3778134277344 419.19083662109375 239.50611342773436 Q 422.07123662109376 238.6344134277344 426.08863662109377 238.6344134277344 Q 429.57543662109373 238.6344134277344 432.56953662109373 239.16501342773438 Q 435.56363662109374 239.69561342773437 437.7618366210937 240.68101342773437 L 436.3216366210938 248.5642134277344 Q 435.03303662109374 248.18521342773437 432.30423662109376 247.3135134277344 Q 429.57543662109373 246.4418134277344 426.1644366210937 246.4418134277344 Q 422.60183662109375 246.4418134277344 421.35113662109376 247.3135134277344 Q 420.10043662109376 248.18521342773437 420.10043662109376 249.17061342773437 Q 420.10043662109376 250.0044134277344 420.66893662109374 250.64871342773438 Q 421.23743662109376 251.29301342773437 422.18493662109375 251.8236134277344 Q 423.13243662109375 252.35421342773438 424.38313662109374 252.84691342773436 Q 425.63383662109374 253.33961342773438 427.07403662109374 253.79441342773438 Q 429.12063662109375 254.47661342773438 431.31883662109374 255.31041342773437 Q 433.5170366210937 256.14421342773437 435.29833662109377 257.39491342773437 Q 437.07963662109375 258.64561342773436 438.21663662109376 260.5785134277344 Q 439.35363662109376 262.5114134277344 439.35363662109376 265.3160134277344 Q 439.35363662109376 267.5142134277344 438.51983662109376 269.4850134277344 Q 437.68603662109376 271.45581342773437 435.75313662109374 272.8960134277344 Q 433.8202366210937 274.3362134277344 430.71243662109373 275.1700134277344 Q 427.60463662109373 276.00381342773437 423.05663662109373 276.00381342773437 Q 418.43283662109377 276.00381342773437 415.17343662109374 274.9426134277344 Q 411.91403662109377 273.8814134277344 409.9432366210938 273.04761342773435 L 411.3834366210937 265.2402134277344 Q 414.03643662109374 266.30141342773436 417.03053662109374 267.2110134277344 Q 420.02463662109375 268.1206134277344 423.13243662109375 268.1206134277344 Z" transform="matrix(1, 0, 0, 1, 0, 0)" style="fill: rgb(51, 51, 51); text-transform: lowercase; white-space: pre;"/>
</svg>